<svg width="230" height="152" viewBox="0 0 230 152" fill="none" xmlns="http://www.w3.org/2000/svg">
<path d="M0 0H230V109.768L116.041 152L0 109.768V0Z" fill="#161E27"/>
<g filter="url(#filter0_d)">
<path d="M38.749 89.1905C38.5779 89.1905 38.443 89.1617 38.3427 89.105C38.2571 89.0482 38.2144 88.9841 38.2144 88.9125C38.2144 88.7554 38.3641 88.6271 38.6635 88.5275C39.2344 88.3992 39.6407 88.2281 39.8826 88.0142C40.1392 87.8003 40.2675 87.4721 40.2675 87.0304V77.1708C40.2675 76.8286 40.2322 76.5793 40.1606 76.4222C40.0899 76.2511 39.9681 76.1228 39.797 76.0372C39.6259 75.9517 39.3413 75.8736 38.9415 75.802C38.5286 75.7164 38.3213 75.5741 38.3213 75.3742C38.3213 75.1892 38.5072 75.0962 38.8774 75.0962C39.2623 75.0962 39.7403 75.1102 40.3103 75.139C40.8236 75.1678 41.2234 75.1818 41.508 75.1818L42.8768 75.1604C43.5045 75.1316 44.0038 75.1176 44.3739 75.1176C44.7309 75.1176 44.9086 75.2031 44.9086 75.3742C44.9086 75.5741 44.7021 75.7164 44.2884 75.802C43.6468 75.9443 43.191 76.094 42.9196 76.2511C42.6629 76.4082 42.5346 76.6789 42.5346 77.0638V86.9662C42.5346 87.408 42.635 87.7288 42.834 87.9287C43.0479 88.1137 43.4403 88.2067 44.0103 88.2067H46.4913C46.8335 88.2067 47.1403 88.1565 47.4109 88.057C47.6964 87.9426 47.9317 87.8077 48.1167 87.6506C48.3734 87.408 48.5807 87.1801 48.737 86.9662C48.8941 86.7384 49.0578 86.4389 49.2289 86.068C49.3432 85.8401 49.4362 85.6756 49.5069 85.576C49.5785 85.4617 49.6566 85.4049 49.7422 85.4049C49.8277 85.4049 49.8919 85.4477 49.9347 85.5333C49.9922 85.6188 50.0202 85.7118 50.0202 85.8113C50.0202 85.8541 50.0136 85.8969 49.9988 85.9396C49.9848 85.9684 49.9774 86.0038 49.9774 86.0466C49.7784 86.7598 49.6352 87.2944 49.5497 87.6506C49.479 87.9928 49.4214 88.3778 49.3786 88.8056C49.3506 89.0622 49.2437 89.1905 49.0578 89.1905C48.3166 89.1905 47.0901 89.1765 45.3791 89.1478C44.1247 89.105 42.8982 89.0836 41.7005 89.0836C41.0309 89.0836 40.2676 89.1124 39.4121 89.1691L38.749 89.1905ZM50.7252 89.1905C50.5541 89.1905 50.4118 89.1617 50.2974 89.105C50.1839 89.0622 50.1263 88.9906 50.1263 88.8911C50.1263 88.6912 50.3402 88.5275 50.7679 88.3992C51.1817 88.2848 51.5379 88.1072 51.8373 87.8645C52.1515 87.6218 52.4008 87.2796 52.5859 86.8379C53.3279 85.1409 53.9835 83.5656 54.5535 82.1113C55.1384 80.643 55.78 78.9385 56.4784 76.9997C56.6783 76.4864 56.8066 76.0159 56.8634 75.5881C57.2771 75.4886 57.6193 75.3668 57.89 75.2245C58.0611 75.139 58.1968 75.0107 58.2963 74.8396C58.4107 74.6545 58.4822 74.5401 58.5102 74.4974C58.5957 74.4406 58.6599 74.4546 58.7027 74.5401C58.7455 74.6117 58.7816 74.6972 58.8096 74.7968C58.8384 74.8963 58.8598 74.9819 58.8738 75.0534C59.7293 77.777 60.8488 81.1842 62.2316 85.2766L62.6594 86.5385C62.888 87.1941 63.1587 87.6506 63.4721 87.9073C63.7863 88.1639 64.1927 88.3424 64.6912 88.442C64.905 88.4847 65.0621 88.5489 65.1617 88.6344C65.276 88.72 65.3328 88.8195 65.3328 88.9339C65.3328 89.091 65.1477 89.1691 64.7767 89.1691L63.4507 89.1264C62.8378 89.0836 62.2316 89.0622 61.6328 89.0622L60.1784 89.0836C59.8938 89.0976 59.5154 89.105 59.0449 89.105C58.8738 89.105 58.7315 89.0836 58.6171 89.0408C58.5176 88.9841 58.4674 88.9125 58.4674 88.8269C58.4674 88.7274 58.525 88.6419 58.6385 88.5703C58.7668 88.4847 58.924 88.428 59.109 88.3992C59.6083 88.3136 59.9645 88.1853 60.1784 88.0142C60.3923 87.8431 60.4778 87.6153 60.4351 87.3298C60.4211 87.0732 60.3429 86.6882 60.1998 86.1749C60.0715 85.6476 59.9431 85.1343 59.8148 84.635C59.7869 84.5634 59.7367 84.3997 59.6651 84.1431C59.6371 84.0436 59.587 83.9794 59.5154 83.9506C59.4447 83.9078 59.3229 83.8864 59.1518 83.8864H55.1951C55.0528 83.8864 54.9319 84.0074 54.8316 84.25C54.6892 84.6778 54.5256 85.2125 54.3397 85.8541C54.1546 86.4817 54.0476 86.8947 54.0188 87.0946C53.9333 87.7502 54.3545 88.1927 55.2807 88.4206C55.7084 88.5201 55.9223 88.6632 55.9223 88.8483C55.9223 89.0194 55.7298 89.105 55.3449 89.105C54.9887 89.105 54.7032 89.0976 54.4894 89.0836L53.2703 89.0622C53.0564 89.0622 52.8072 89.0696 52.5217 89.0836C52.2371 89.0976 52.0232 89.1124 51.8801 89.1264C51.4811 89.1691 51.0962 89.1905 50.7252 89.1905ZM58.9166 83.0096C59.0021 83.0096 59.0737 83.0021 59.1304 82.9882C59.188 82.9742 59.216 82.9454 59.216 82.9026C59.216 82.8886 59.202 82.8097 59.1732 82.6674L57.5905 77.5985C57.5198 77.3707 57.4622 77.2563 57.4194 77.2563C57.3915 77.2563 57.3413 77.3633 57.2697 77.5771L55.409 82.6674L55.3662 82.8385C55.3662 82.91 55.4024 82.9594 55.4732 82.9882C55.5447 83.0021 55.6517 83.0096 55.794 83.0096H58.9166ZM79.497 89.4686C79.2971 89.4686 79.0051 89.3476 78.6201 89.105C78.2351 88.8623 77.8781 88.5135 77.5507 88.057L75.2409 85.4049C71.7334 81.3701 69.8299 79.1886 69.5305 78.8604C69.3734 78.6465 69.245 78.5396 69.1455 78.5396C69.0879 78.5396 69.0451 78.5898 69.0172 78.6893C68.9884 78.7748 68.9744 78.8744 68.9744 78.9887C68.9456 81.7263 68.9316 84.3282 68.9316 86.7951C68.9316 87.7362 69.4301 88.3062 70.4287 88.5061C70.8705 88.6057 71.0917 88.7414 71.0917 88.9125C71.0917 89.0836 70.8919 89.1691 70.4929 89.1691C70.0652 89.1691 69.6374 89.1552 69.2097 89.1264C68.8675 89.0976 68.582 89.0836 68.3542 89.0836C68.0687 89.0836 67.7405 89.0976 67.3703 89.1264C66.9993 89.1552 66.6785 89.1691 66.4079 89.1691C66.0081 89.1691 65.8091 89.0836 65.8091 88.9125C65.8091 88.813 65.8584 88.734 65.9588 88.6772C66.0583 88.6205 66.2294 88.5563 66.4721 88.4847C67.1844 88.2849 67.5768 87.7074 67.6484 86.7524C67.7479 85.7825 67.8409 84.5207 67.9264 82.9668C68.012 81.4129 68.0547 79.8368 68.0547 78.2401C68.0547 77.5418 67.8836 77.0211 67.5414 76.6789C67.1992 76.3367 66.6859 76.0512 66.0015 75.8234C65.8732 75.7806 65.7301 75.7164 65.5738 75.6309C65.4307 75.5453 65.3599 75.4458 65.3599 75.3315C65.3599 75.2171 65.4093 75.139 65.5096 75.0962C65.6232 75.0394 65.7449 75.0107 65.8732 75.0107C66.4721 75.0107 67.0068 75.032 67.4773 75.0748C68.2472 75.1036 68.9168 75.1176 69.4877 75.1176C69.5872 75.1176 69.6654 75.1464 69.7229 75.2031C69.7937 75.2459 69.8727 75.3241 69.9582 75.4384L72.4605 78.4326C73.3728 79.516 74.3706 80.7071 75.4548 82.0043C76.5381 83.2876 77.4578 84.3709 78.2138 85.2552C78.4276 85.5119 78.5839 85.6402 78.6843 85.6402C78.8126 85.6402 78.8833 85.5045 78.8982 85.2339V80.4003V77.0852C78.8833 76.7858 78.741 76.5292 78.4704 76.3153C78.1989 76.0874 77.8855 75.9303 77.5294 75.8448C77.3007 75.802 77.1082 75.7452 76.9519 75.6737C76.7948 75.6021 76.7166 75.5165 76.7166 75.417C76.7166 75.3315 76.7948 75.2673 76.9519 75.2245C77.1082 75.1817 77.2793 75.1604 77.4652 75.1604H78.9837L80.0317 75.139C80.4874 75.1102 80.9439 75.0962 81.4005 75.0962C81.7854 75.0962 81.9779 75.1892 81.9779 75.3742C81.9779 75.5741 81.7567 75.7164 81.3149 75.802C80.8016 75.9015 80.452 76.0373 80.2669 76.2084C80.081 76.3655 79.9815 76.6287 79.9675 76.9997C79.896 80.8494 79.8606 83.9934 79.8606 86.4315C79.8606 86.8305 79.896 87.4228 79.9675 88.2067L80.0103 88.7842C80.0103 89.2407 79.8392 89.4686 79.497 89.4686ZM90.2088 89.2333C89.809 89.2333 89.253 89.2119 88.5406 89.1691C87.3141 89.1124 86.4018 89.0836 85.803 89.0836C85.5463 89.0836 85.1754 89.0976 84.6908 89.1264C84.1488 89.1552 83.6782 89.1691 83.2793 89.1691C82.9083 89.1691 82.7232 89.0762 82.7232 88.8911C82.7232 88.7768 82.766 88.6986 82.8515 88.6558C82.9511 88.5991 83.1148 88.5489 83.3435 88.5061C83.8847 88.4066 84.2557 88.2495 84.4556 88.0356C84.6695 87.8217 84.7764 87.4721 84.7764 86.9876V77.3205C84.7764 76.836 84.676 76.4938 84.477 76.2939C84.2771 76.08 83.8995 75.9163 83.3435 75.802C83.1148 75.7592 82.9511 75.709 82.8515 75.6523C82.766 75.5955 82.7232 75.51 82.7232 75.3956C82.7232 75.2961 82.7726 75.2245 82.8729 75.1818C82.9725 75.125 83.1082 75.0962 83.2793 75.0962C83.6355 75.0962 84.0846 75.1102 84.6267 75.139L85.8885 75.1604C86.2159 75.1604 86.9217 75.1316 88.0059 75.0748C88.9749 75.0181 89.5738 74.9893 89.8024 74.9893C91.4986 74.9893 92.939 75.2887 94.1227 75.8875C95.3204 76.4724 96.2187 77.2777 96.8175 78.3043C97.4164 79.3309 97.7158 80.4998 97.7158 81.8119C97.7158 83.1379 97.3876 84.371 96.732 85.5119C96.0903 86.638 95.1921 87.5437 94.0372 88.2281C92.8962 88.8985 91.6204 89.2333 90.2088 89.2333ZM89.9308 88.3564C90.9713 88.3564 91.8836 88.0998 92.6684 87.5865C93.4663 87.0732 94.0799 86.36 94.5077 85.4477C94.9354 84.5207 95.1493 83.4587 95.1493 82.261C95.1493 80.9638 94.8992 79.8302 94.4007 78.8604C93.9014 77.8766 93.231 77.128 92.3903 76.6147C91.5488 76.0874 90.6366 75.8234 89.6527 75.8234C88.9683 75.8234 88.455 75.8448 88.1128 75.8875C87.7846 75.9163 87.5206 76.0159 87.3215 76.187C87.1356 76.3441 87.0435 76.6007 87.0435 76.9569V86.4102C87.0435 87.1513 87.3001 87.6646 87.8134 87.95C88.3267 88.2207 89.0325 88.3564 89.9308 88.3564ZM102.866 89.4044C101.64 89.4044 100.592 89.0762 99.7221 88.4206C99.5362 88.2635 99.4292 88.1137 99.4013 87.9714C99.2442 87.5149 99.1512 86.6668 99.1232 85.4263C99.1232 85.3268 99.1586 85.2552 99.2302 85.2125C99.3157 85.1557 99.4227 85.1269 99.551 85.1269C99.7501 85.1269 99.8784 85.2125 99.936 85.3836C100.221 86.4241 100.648 87.2229 101.219 87.779C101.803 88.335 102.452 88.6131 103.165 88.6131C103.878 88.6131 104.449 88.3852 104.876 87.9287C105.318 87.4721 105.539 86.8947 105.539 86.1963C105.539 85.683 105.447 85.2552 105.261 84.913C105.09 84.5568 104.848 84.2574 104.534 84.0148C104.22 83.7581 103.75 83.4447 103.123 83.0737C102.267 82.5604 101.618 82.1467 101.176 81.8332C100.749 81.5198 100.37 81.1201 100.043 80.6355C99.7147 80.1362 99.551 79.5448 99.551 78.8604C99.551 78.1044 99.7361 77.4274 100.107 76.8286C100.477 76.2158 101.012 75.7378 101.711 75.3956C102.423 75.0534 103.258 74.8823 104.213 74.8823C105.04 74.8823 105.845 75.046 106.63 75.3742C106.872 75.4738 107.037 75.6663 107.122 75.9517C107.364 76.9215 107.486 77.6767 107.486 78.2188C107.486 78.2903 107.45 78.3471 107.379 78.3899C107.321 78.4326 107.243 78.454 107.144 78.454C107.015 78.454 106.893 78.4252 106.78 78.3685C106.666 78.3117 106.594 78.2402 106.566 78.1546C106.281 77.3419 105.917 76.7356 105.475 76.3367C105.048 75.9229 104.527 75.7164 103.914 75.7164C103.215 75.7164 102.652 75.9015 102.224 76.2725C101.811 76.6435 101.604 77.2136 101.604 77.9835C101.604 78.5108 101.839 78.9887 102.31 79.4165C102.78 79.8302 103.536 80.3501 104.577 80.9777C105.618 81.6194 106.395 82.247 106.908 82.8598C107.422 83.4587 107.678 84.2286 107.678 85.1697C107.678 86.4957 107.243 87.5363 106.374 88.2922C105.503 89.0334 104.334 89.4044 102.866 89.4044ZM117.23 89.4044C115.847 89.4044 114.557 89.105 113.359 88.5061C112.161 87.8933 111.199 87.0444 110.472 85.961C109.759 84.8629 109.402 83.6158 109.402 82.2182C109.402 80.8782 109.773 79.6517 110.515 78.5396C111.256 77.4135 112.268 76.5292 113.552 75.8875C114.835 75.2319 116.246 74.9037 117.786 74.9037C118.513 74.9037 119.148 74.9539 119.69 75.0534C120.231 75.153 120.88 75.3101 121.636 75.524C121.821 75.5807 121.957 75.6663 122.042 75.7806C122.142 75.8801 122.199 76.0233 122.213 76.2084C122.299 77.0351 122.363 77.8626 122.406 78.6893C122.406 78.7888 122.363 78.8744 122.278 78.9459C122.206 79.0027 122.128 79.0315 122.042 79.0315C121.828 79.0315 121.693 78.9246 121.636 78.7107C121.493 78.1686 121.329 77.7269 121.144 77.3847C120.973 77.0425 120.738 76.757 120.438 76.5292C119.739 75.9871 118.755 75.7164 117.487 75.7164C116.445 75.7164 115.512 75.9945 114.685 76.5506C113.872 77.1066 113.231 77.8412 112.76 78.7535C112.304 79.6657 112.076 80.6429 112.076 81.6835C112.076 82.8952 112.296 84.0287 112.739 85.0841C113.195 86.1395 113.836 86.9876 114.664 87.6292C115.504 88.2569 116.482 88.5703 117.594 88.5703C118.606 88.5703 119.447 88.349 120.117 87.9073C120.787 87.4656 121.358 86.7877 121.828 85.8755C121.942 85.6756 122.092 85.576 122.278 85.576C122.363 85.576 122.434 85.6048 122.491 85.6616C122.548 85.7184 122.577 85.8039 122.577 85.9182C122.577 86.1181 122.519 86.439 122.406 86.8807C122.306 87.3224 122.185 87.7362 122.042 88.1212C121.957 88.3062 121.878 88.4346 121.807 88.5061C121.735 88.5777 121.6 88.6484 121.401 88.72C120.873 88.9339 120.238 89.0976 119.497 89.2119C118.77 89.3402 118.014 89.4044 117.23 89.4044ZM124.202 89.1905C124.031 89.1905 123.889 89.1617 123.775 89.105C123.661 89.0622 123.604 88.9906 123.604 88.8911C123.604 88.6912 123.817 88.5275 124.245 88.3992C124.659 88.2848 125.015 88.1072 125.315 87.8645C125.629 87.6218 125.878 87.2796 126.063 86.8379C126.805 85.1409 127.461 83.5656 128.031 82.1113C128.616 80.643 129.257 78.9385 129.956 76.9997C130.156 76.4864 130.284 76.0159 130.341 75.5881C130.754 75.4886 131.097 75.3668 131.367 75.2245C131.538 75.139 131.674 75.0107 131.774 74.8396C131.888 74.6545 131.959 74.5401 131.987 74.4974C132.073 74.4406 132.137 74.4546 132.18 74.5401C132.223 74.6117 132.259 74.6972 132.287 74.7968C132.316 74.8963 132.337 74.9819 132.351 75.0534C133.207 77.777 134.326 81.1842 135.709 85.2766L136.137 86.5385C136.365 87.1941 136.636 87.6506 136.949 87.9073C137.264 88.1639 137.67 88.3424 138.168 88.442C138.382 88.4847 138.539 88.5489 138.639 88.6344C138.753 88.72 138.81 88.8195 138.81 88.9339C138.81 89.091 138.625 89.1691 138.254 89.1691L136.928 89.1264C136.315 89.0836 135.709 89.0622 135.11 89.0622L133.656 89.0836C133.371 89.0976 132.993 89.105 132.522 89.105C132.351 89.105 132.209 89.0836 132.094 89.0408C131.995 88.9841 131.945 88.9125 131.945 88.8269C131.945 88.7274 132.002 88.6419 132.116 88.5703C132.244 88.4847 132.401 88.428 132.586 88.3992C133.086 88.3136 133.442 88.1853 133.656 88.0142C133.87 87.8431 133.955 87.6153 133.912 87.3298C133.898 87.0732 133.82 86.6882 133.677 86.1749C133.549 85.6476 133.42 85.1343 133.292 84.635C133.264 84.5634 133.214 84.3997 133.142 84.1431C133.114 84.0436 133.064 83.9794 132.993 83.9506C132.922 83.9078 132.8 83.8864 132.629 83.8864H128.672C128.53 83.8864 128.409 84.0074 128.309 84.25C128.167 84.6778 128.003 85.2125 127.817 85.8541C127.632 86.4817 127.525 86.8947 127.496 87.0946C127.411 87.7502 127.832 88.1927 128.758 88.4206C129.186 88.5201 129.4 88.6632 129.4 88.8483C129.4 89.0194 129.207 89.105 128.822 89.105C128.466 89.105 128.181 89.0976 127.967 89.0836L126.748 89.0622C126.534 89.0622 126.284 89.0696 125.999 89.0836C125.714 89.0976 125.501 89.1124 125.357 89.1264C124.958 89.1691 124.573 89.1905 124.202 89.1905ZM132.394 83.0096C132.479 83.0096 132.551 83.0021 132.608 82.9882C132.665 82.9742 132.693 82.9454 132.693 82.9026C132.693 82.8886 132.679 82.8097 132.65 82.6674L131.068 77.5985C130.997 77.3707 130.939 77.2563 130.897 77.2563C130.869 77.2563 130.819 77.3633 130.747 77.5771L128.886 82.6674L128.844 82.8385C128.844 82.91 128.88 82.9594 128.95 82.9882C129.022 83.0021 129.129 83.0096 129.271 83.0096H132.394ZM139.607 89.1691C139.236 89.1691 139.051 89.0836 139.051 88.9125C139.051 88.813 139.1 88.734 139.201 88.6772C139.3 88.6057 139.457 88.5489 139.671 88.5061C140.227 88.4066 140.619 88.2495 140.848 88.0356C141.075 87.8077 141.19 87.4507 141.19 86.9662V77.7482C141.19 77.1354 141.097 76.6863 140.912 76.4008C140.741 76.1014 140.405 75.9015 139.907 75.802C139.479 75.7164 139.265 75.5741 139.265 75.3742C139.265 75.2887 139.314 75.2245 139.415 75.1818C139.528 75.125 139.664 75.0962 139.821 75.0962C140.234 75.0962 140.683 75.1102 141.168 75.139L142.216 75.1604C142.516 75.1604 142.95 75.1316 143.521 75.0748C144.062 75.0181 144.483 74.9893 144.783 74.9893C146.465 74.9893 147.799 75.3389 148.782 76.0372C149.78 76.7356 150.279 77.6981 150.279 78.9245C150.279 79.8368 150.094 80.6643 149.723 81.4055C149.366 82.1327 148.818 82.7175 148.077 83.1593C147.349 83.587 146.444 83.8009 145.36 83.8009C145.046 83.8009 144.797 83.7581 144.612 83.6726C144.426 83.573 144.334 83.4661 144.334 83.3518C144.334 83.2802 144.377 83.2094 144.462 83.1379C144.548 83.0663 144.626 83.0309 144.697 83.0309C144.768 83.0309 144.89 83.0449 145.061 83.0737C145.232 83.0877 145.425 83.0951 145.638 83.0951C146.394 83.0951 146.971 82.7529 147.371 82.0685C147.77 81.3841 147.97 80.4291 147.97 79.2026C147.97 78.0477 147.684 77.1782 147.114 76.5933C146.543 76.0085 145.767 75.7164 144.783 75.7164C143.913 75.7164 143.478 76.0372 143.478 76.6789L143.457 86.7951C143.457 87.2944 143.57 87.6794 143.799 87.95C144.041 88.2207 144.433 88.4066 144.975 88.5061C145.189 88.5489 145.346 88.6057 145.446 88.6772C145.545 88.734 145.596 88.813 145.596 88.9125C145.596 89.0836 145.41 89.1691 145.04 89.1691C144.896 89.1691 144.419 89.1478 143.607 89.105C143.25 89.0622 142.886 89.0408 142.516 89.0408C142.031 89.0408 141.56 89.0622 141.104 89.105C140.961 89.105 140.741 89.1124 140.441 89.1264C140.142 89.1552 139.864 89.1691 139.607 89.1691ZM151.761 89.1691C151.391 89.1691 151.205 89.0836 151.205 88.9125C151.205 88.813 151.255 88.734 151.355 88.6772C151.455 88.6057 151.611 88.5489 151.825 88.5061C152.381 88.4066 152.781 88.2495 153.023 88.0356C153.279 87.8077 153.408 87.4581 153.408 86.9876V77.3205C153.408 76.836 153.308 76.4938 153.108 76.2939C152.909 76.08 152.538 75.9163 151.996 75.802C151.583 75.7164 151.376 75.5741 151.376 75.3742C151.376 75.1892 151.554 75.0962 151.911 75.0962C152.296 75.0962 152.788 75.1102 153.386 75.139C153.928 75.1678 154.342 75.1818 154.627 75.1818L155.825 75.1604C156.367 75.1316 156.837 75.1176 157.236 75.1176C157.607 75.1176 157.792 75.2031 157.792 75.3742C157.792 75.5741 157.586 75.7164 157.172 75.802C156.602 75.9163 156.21 76.08 155.996 76.2939C155.782 76.5078 155.675 76.85 155.675 77.3205V86.9876C155.675 87.4442 155.797 87.779 156.038 87.9928C156.295 88.2067 156.709 88.3778 157.279 88.5061C157.493 88.5489 157.65 88.6057 157.749 88.6772C157.85 88.734 157.899 88.813 157.899 88.9125C157.899 89.0836 157.721 89.1691 157.364 89.1691C156.851 89.1691 156.367 89.1478 155.91 89.105C155.34 89.0762 154.912 89.0622 154.627 89.0622C154.313 89.0622 153.857 89.0762 153.258 89.105C152.788 89.1478 152.289 89.1691 151.761 89.1691ZM172.628 89.4686C172.429 89.4686 172.136 89.3476 171.751 89.105C171.366 88.8623 171.01 88.5135 170.681 88.057L168.372 85.4049C164.864 81.3701 162.961 79.1886 162.661 78.8604C162.505 78.6465 162.376 78.5396 162.276 78.5396C162.219 78.5396 162.177 78.5898 162.148 78.6893C162.12 78.7748 162.105 78.8744 162.105 78.9887C162.077 81.7263 162.062 84.3282 162.062 86.7951C162.062 87.7362 162.562 88.3062 163.559 88.5061C164.002 88.6057 164.222 88.7414 164.222 88.9125C164.222 89.0836 164.023 89.1691 163.624 89.1691C163.196 89.1691 162.768 89.1552 162.34 89.1264C161.998 89.0976 161.714 89.0836 161.485 89.0836C161.2 89.0836 160.872 89.0976 160.501 89.1264C160.131 89.1552 159.81 89.1691 159.539 89.1691C159.14 89.1691 158.94 89.0836 158.94 88.9125C158.94 88.813 158.99 88.734 159.089 88.6772C159.19 88.6205 159.361 88.5563 159.603 88.4847C160.316 88.2849 160.708 87.7074 160.779 86.7524C160.879 85.7825 160.972 84.5207 161.057 82.9668C161.143 81.4129 161.185 79.8368 161.185 78.2401C161.185 77.5418 161.014 77.0211 160.672 76.6789C160.33 76.3367 159.817 76.0512 159.132 75.8234C159.004 75.7806 158.862 75.7164 158.704 75.6309C158.562 75.5453 158.491 75.4458 158.491 75.3315C158.491 75.2171 158.541 75.139 158.64 75.0962C158.755 75.0394 158.876 75.0107 159.004 75.0107C159.603 75.0107 160.137 75.032 160.608 75.0748C161.378 75.1036 162.048 75.1176 162.618 75.1176C162.719 75.1176 162.797 75.1464 162.854 75.2031C162.925 75.2459 163.003 75.3241 163.089 75.4384L165.591 78.4326C166.504 79.516 167.502 80.7071 168.585 82.0043C169.67 83.2876 170.589 84.3709 171.344 85.2552C171.558 85.5119 171.715 85.6402 171.815 85.6402C171.943 85.6402 172.015 85.5045 172.029 85.2339V80.4003V77.0852C172.015 76.7858 171.873 76.5292 171.601 76.3153C171.33 76.0874 171.017 75.9303 170.66 75.8448C170.432 75.802 170.24 75.7452 170.083 75.6737C169.926 75.6021 169.847 75.5165 169.847 75.417C169.847 75.3315 169.926 75.2673 170.083 75.2245C170.24 75.1817 170.411 75.1604 170.596 75.1604H172.114L173.162 75.139C173.619 75.1102 174.075 75.0962 174.531 75.0962C174.916 75.0962 175.109 75.1892 175.109 75.3742C175.109 75.5741 174.888 75.7164 174.446 75.802C173.932 75.9015 173.584 76.0373 173.398 76.2084C173.213 76.3655 173.113 76.6287 173.098 76.9997C173.027 80.8494 172.991 83.9934 172.991 86.4315C172.991 86.8305 173.027 87.4228 173.098 88.2067L173.141 88.7842C173.141 89.2407 172.97 89.4686 172.628 89.4686ZM183.596 89.383C182.27 89.383 181.037 89.0836 179.896 88.4847C178.756 87.8719 177.843 87.0378 177.158 85.9824C176.489 84.913 176.153 83.7227 176.153 82.4107C176.153 81.0559 176.503 79.8088 177.201 78.6679C177.9 77.513 178.856 76.6007 180.067 75.9303C181.294 75.2459 182.641 74.9037 184.109 74.9037C184.638 74.9037 185.393 74.9893 186.376 75.1604C187.375 75.3175 188.045 75.4738 188.387 75.6309C188.472 75.6597 188.53 75.7025 188.558 75.7592C188.601 75.802 188.637 75.8735 188.665 75.9731C188.808 77.1708 188.879 77.9547 188.879 78.3257C188.879 78.44 188.843 78.5396 188.772 78.6251C188.715 78.7107 188.644 78.7535 188.558 78.7535C188.416 78.7535 188.309 78.7107 188.237 78.6251C188.166 78.5396 188.095 78.4039 188.023 78.2188C187.809 77.7055 187.546 77.2703 187.232 76.9141C186.99 76.6435 186.605 76.3934 186.077 76.1656C185.55 75.9377 184.887 75.8234 184.088 75.8234C183.047 75.8234 182.12 76.1088 181.308 76.6789C180.51 77.2489 179.89 78.0123 179.447 78.9673C179.019 79.9084 178.805 80.9276 178.805 82.0257C178.805 83.323 179.034 84.4639 179.49 85.4477C179.946 86.4176 180.559 87.1661 181.329 87.6934C182.114 88.2067 182.976 88.4634 183.917 88.4634C184.887 88.4634 185.621 88.2355 186.12 87.779C186.291 87.6218 186.434 87.408 186.548 87.1373C186.662 86.8519 186.719 86.5459 186.719 86.2177C186.719 85.9322 186.726 85.697 186.74 85.5119L186.761 84.7847C186.761 84.4285 186.683 84.1998 186.526 84.1003C186.355 83.9432 186.07 83.8149 185.671 83.7153C185.286 83.601 184.958 83.5368 184.687 83.5229C184.587 83.5089 184.48 83.4661 184.366 83.3945C184.267 83.309 184.216 83.216 184.216 83.1165C184.216 83.0309 184.267 82.9528 184.366 82.8812C184.48 82.8097 184.58 82.7743 184.665 82.7743C185.008 82.7743 185.478 82.7883 186.077 82.8171C186.705 82.8459 187.204 82.8598 187.574 82.8598C187.817 82.8598 188.166 82.8459 188.622 82.8171C189.079 82.7883 189.45 82.7743 189.734 82.7743C189.82 82.7743 189.905 82.8031 189.991 82.8598C190.091 82.9166 190.141 83.0022 190.141 83.1165C190.141 83.216 190.091 83.3016 189.991 83.3731C189.905 83.4447 189.813 83.4941 189.713 83.5229C189.386 83.6224 189.15 83.7507 189.007 83.9078C188.865 84.0501 188.772 84.2714 188.729 84.5708C188.658 85.0841 188.622 85.6188 188.622 86.1749V86.7951C188.622 86.8807 188.644 86.9588 188.686 87.0304C188.744 87.0871 188.779 87.1299 188.793 87.1587C188.822 87.2015 188.872 87.2657 188.943 87.3512C189.015 87.4368 189.05 87.5083 189.05 87.5651C189.05 87.8077 188.936 87.9426 188.708 87.9714C188.579 88.0002 188.38 88.0858 188.109 88.2281C187.424 88.5563 186.726 88.8343 186.013 89.0622C185.301 89.2761 184.494 89.383 183.596 89.383Z" fill="#E6B642"/>
<path d="M15 54.5363C15.3027 53.6282 16.7661 50.4118 19.3893 44.8873C23.2489 36.5125 25.8352 30.8867 27.1464 28.011C27.3734 27.5067 27.4869 27.0905 27.4869 26.7623C27.4869 26.207 27.1217 25.9298 26.3896 25.9298C25.4058 25.9298 24.5733 26.2449 23.8922 26.8758C23.2111 27.4812 22.6945 28.2503 22.3408 29.184C22.0134 30.1176 21.8489 31.0636 21.8489 32.0219C21.8489 32.5517 21.8999 33.1571 22.0003 33.8382C21.1678 33.8382 20.5122 33.4853 20.0326 32.7787C19.5539 32.0474 19.3137 31.2528 19.3137 30.3948C19.3137 29.3608 19.7052 28.3515 20.4867 27.3677C21.269 26.3584 22.2651 25.5514 23.476 24.946C24.7123 24.315 25.9232 24 27.1086 24C28.0924 24 28.9002 24.2772 29.5303 24.8325C30.1867 25.3622 30.6786 26.3082 31.006 27.6704C31.3597 29.0326 31.5357 30.9369 31.5357 33.3841C31.5357 35.1502 31.3975 37.887 31.1195 41.5953C30.918 44.3197 30.8168 46.0603 30.8168 46.8171C31.5736 44.5467 32.6462 42.0115 34.0331 39.2114C35.4208 36.4113 36.7954 33.8259 38.1576 31.4543C39.5453 29.0581 40.6303 27.2797 41.4118 26.119C41.8157 25.4881 42.1562 25.0595 42.4334 24.8325C42.7115 24.5799 43.0644 24.4541 43.4929 24.4541C43.8466 24.4541 44.4011 24.5931 45.1579 24.8703C44.6536 25.9553 43.998 28.1623 43.1902 31.4922C42.3833 34.822 41.6766 38.3287 41.0712 42.0115C40.4913 45.6696 40.2009 48.621 40.2009 50.8659C40.2009 51.6482 40.2388 52.2281 40.3144 52.6065C40.3901 52.9849 40.4913 53.3509 40.6172 53.7038C40.7685 54.0822 40.882 54.3594 40.9577 54.5363C39.8735 54.5363 39.0534 54.3726 38.4982 54.0444C37.9437 53.7417 37.5653 53.2374 37.363 52.5308C37.1614 51.8497 37.0603 50.8782 37.0603 49.6172C37.0603 47.0943 37.3251 44.4209 37.8549 41.5953C38.4101 38.7697 39.2171 35.3139 40.2766 31.2273C38.6873 33.4977 36.9468 36.714 35.0548 40.8763C33.1628 45.0386 31.7628 48.4565 30.8546 51.1308L30.5898 51.2064C30.4137 51.2821 30.2369 51.32 30.06 51.32C29.2275 51.32 28.6731 50.8404 28.3951 49.8821C28.1434 48.9237 28.0167 47.397 28.0167 45.3035C28.0167 44.017 28.0677 41.8601 28.168 38.833C28.2692 35.6545 28.3194 33.334 28.3194 31.8706L28.2816 29.638L24.3841 38.7952C22.5177 43.2347 21.1176 46.4642 20.184 48.482C19.2758 50.4752 18.4055 51.9756 17.5731 52.9849C16.7661 54.0189 15.9081 54.5363 15 54.5363ZM53.4924 54.5363C51.9031 54.5363 50.4907 54.2212 49.2544 53.5903C48.0435 52.9594 47.0975 52.1146 46.4164 51.0551C45.7353 49.9701 45.3948 48.7847 45.3948 47.4982C45.3948 45.9846 45.811 44.5212 46.6435 43.1088C47.4759 41.6964 48.6234 40.4979 50.0868 39.5141C51.5749 38.5303 53.2275 37.9125 55.0438 37.66C54.1611 36.8777 53.48 35.9951 53.0004 35.0112C52.5464 34.0019 52.3193 32.9934 52.3193 31.9841C52.3193 30.6219 52.6599 29.3353 53.341 28.1245C54.0476 26.8881 55.0314 25.9043 56.2925 25.173C57.5535 24.4162 58.979 24.0378 60.5683 24.0378C62.0819 24.0378 63.2294 24.4039 64.0117 25.1352C64.8186 25.8418 65.2225 26.8758 65.2225 28.238C65.2225 29.1716 65.0588 30.1045 64.7306 31.0381C64.4279 31.9717 64.024 32.7409 63.5197 33.3463C63.0402 33.9262 62.5614 34.2166 62.0819 34.2166C61.4509 34.2166 60.8455 33.6992 60.2656 32.6652C62.4348 30.8991 63.5197 29.2473 63.5197 27.7082C63.5197 26.977 63.3051 26.3962 62.8765 25.9676C62.4479 25.5391 61.817 25.3244 60.9845 25.3244C59.3451 25.3244 58.0586 26.0055 57.1249 27.3677C56.1913 28.7044 55.7249 30.3447 55.7249 32.2868C55.7249 33.422 55.9141 34.5193 56.2925 35.5788C56.6708 36.6128 57.4021 37.5588 58.4871 38.4168C56.721 38.694 55.1573 39.3126 53.7951 40.2709C52.4584 41.2045 51.4112 42.3265 50.6544 43.6386C49.9231 44.9251 49.5571 46.2117 49.5571 47.4982C49.5571 48.8604 49.961 50.0713 50.7679 51.1308C51.6004 52.1903 52.8368 52.72 54.4762 52.72C56.2168 52.72 57.894 52.1903 59.5088 51.1308C61.1235 50.0458 62.4726 48.6457 63.5576 46.9306C64.6426 45.19 65.2982 43.3737 65.5252 41.4817C64.9198 41.5072 64.2889 41.5698 63.6333 41.6709C62.9777 41.7721 62.2077 41.9103 61.3251 42.0872C60.9212 42.1373 60.6061 42.1884 60.3791 42.2385C60.4046 41.0532 60.7953 40.2207 61.5521 39.7411C62.3089 39.2616 63.3429 39.0222 64.6549 39.0222C65.4619 39.0222 66.5214 39.1234 67.8334 39.3249C69.0698 39.5519 70.1671 39.6655 71.1254 39.6655C70.7725 40.4222 70.4443 40.9018 70.1416 41.1033C69.8389 41.3049 69.4984 41.4061 69.12 41.4061L67.001 41.4439C66.7739 43.7143 66.0048 45.8588 64.6928 47.8766C63.3807 49.8697 61.729 51.4713 59.7358 52.6822C57.7682 53.9185 55.687 54.5363 53.4924 54.5363ZM76.529 54.5363C74.9653 54.5363 73.7923 54.2714 73.01 53.7417C72.2532 53.2374 71.8625 52.4173 71.837 51.2821C71.837 51.0296 71.976 50.9037 72.2532 50.9037C72.4046 50.9037 72.7451 50.9671 73.2749 51.0929C73.8301 51.1941 74.7251 51.2443 75.9614 51.2443C78.8372 51.2443 81.4358 50.8536 83.7563 50.0713C86.1024 49.2643 87.9441 48.2171 89.2809 46.9306C90.6176 45.6441 91.2863 44.2818 91.2863 42.844C91.2863 41.0778 90.3659 39.8925 88.5241 39.2871C86.6823 38.6561 84.3363 38.3411 81.486 38.3411L78.6859 38.3789C78.3075 39.6655 77.9669 40.8508 77.6642 41.9358C77.387 43.0208 77.1345 43.9668 76.9074 44.7738C76.1761 47.5237 75.6711 49.3778 75.3939 50.3361C74.6371 50.3361 73.9815 50.1346 73.4262 49.7307C72.871 49.3268 72.5938 48.8349 72.5938 48.255C72.5938 47.8009 72.7196 47.221 72.9722 46.5144L73.1235 46.0603L73.6154 44.5467C76.4155 35.8182 78.8117 29.5245 80.8049 25.6649C79.5438 25.9421 78.2441 26.4472 76.9074 27.1785C76.7816 27.2287 76.6047 27.3175 76.3777 27.4434C76.1507 27.5445 75.9869 27.5947 75.8858 27.5947C75.6332 27.5947 75.3182 27.4179 74.9398 27.065C74.5614 26.6866 74.3722 26.3715 74.3722 26.119C76.1128 25.4124 77.6642 24.8826 79.0264 24.5297C80.4141 24.1769 82.0412 24 83.9077 24C86.4051 24 88.6121 24.4286 90.5295 25.2865C92.447 26.1445 93.4053 27.7716 93.4053 30.1678C93.4053 32.1099 92.6362 33.6613 91.0971 34.822C89.5836 35.9572 87.7171 36.7897 85.4969 37.3194C88.3472 37.6978 90.416 38.4669 91.7026 39.6276C92.9891 40.7883 93.6324 42.0493 93.6324 43.4115C93.6324 45.7074 92.674 47.6997 90.7566 49.3902C88.8646 51.0806 86.5688 52.354 83.8699 53.2119C81.1956 54.0946 78.7492 54.5363 76.529 54.5363ZM79.0643 36.941C82.3439 36.8152 85.0684 36.1966 87.2375 35.0869C89.4322 33.9517 90.5295 32.2111 90.5295 29.8651C90.5295 26.8379 88.158 25.3244 83.4158 25.3244C82.0034 28.0488 80.5523 31.9207 79.0643 36.941ZM109.152 54.5363C108.37 54.5363 107.651 54.3216 106.995 53.893C106.34 53.4891 106.012 52.9849 106.012 52.3795C106.012 51.9509 106.175 51.2443 106.503 50.2605C108.446 44.3074 110.01 39.6655 111.196 36.3356C112.381 33.0058 113.832 29.4365 115.547 25.6271C114.261 25.9298 112.936 26.434 111.574 27.1407C110.968 27.4434 110.602 27.5947 110.477 27.5947C110.25 27.5947 109.947 27.4179 109.568 27.065C109.216 26.6866 109.039 26.3715 109.039 26.119C112.419 24.7066 115.383 24 117.931 24C119.596 24 121.235 24.2904 122.85 24.8703C124.489 25.4502 125.839 26.3082 126.899 27.4434C127.958 28.553 128.488 29.8774 128.488 31.4165C128.488 33.8382 127.517 35.7047 125.574 37.0167C123.632 38.3287 121.5 39.2114 119.18 39.6655C116.884 40.094 114.942 40.3087 113.352 40.3087H113.125L111.006 47.9144C110.477 49.9322 109.859 52.1401 109.152 54.5363ZM113.466 39.1357C115.484 39.0099 117.389 38.6183 119.18 37.9627C120.996 37.3071 122.472 36.3734 123.607 35.1626C124.767 33.9517 125.347 32.5015 125.347 30.8111C125.347 29.0705 124.679 27.7337 123.342 26.8001C122.005 25.8665 120.378 25.3746 118.461 25.3244C116.947 28.2503 115.282 32.8544 113.466 39.1357ZM132.123 52.2281C131.189 52.2281 130.433 51.9756 129.853 51.4713C129.273 50.9917 128.982 50.3361 128.982 49.5037C128.982 49.0241 129.07 48.5075 129.247 47.9523C129.449 47.3723 129.739 46.6781 130.118 45.8711C130.446 45.1645 130.698 44.5722 130.874 44.0927C131.051 43.5884 131.139 43.1467 131.139 42.7683C131.139 41.81 130.508 41.0022 129.247 40.3466C128.743 41.6076 128.15 42.8818 127.469 44.1683C126.813 45.4549 126.22 46.5399 125.69 47.4225L125.123 46.3252C126.283 44.2564 127.305 41.9737 128.188 39.4763C127.935 39.2237 127.809 38.8832 127.809 38.4546C127.809 37.799 128.011 37.1804 128.415 36.6005C128.819 36.0205 129.209 35.7302 129.588 35.7302C129.84 35.7302 130.042 35.8815 130.193 36.1842C130.37 36.487 130.458 36.7395 130.458 36.941C130.458 37.0422 130.395 37.2692 130.269 37.6221C130.168 37.9504 130.092 38.1897 130.042 38.3411C130.067 38.5179 130.168 38.694 130.345 38.8708C130.521 39.0222 130.849 39.2492 131.328 39.5519C132.211 40.1319 132.892 40.6995 133.372 41.2547C133.876 41.7845 134.129 42.5034 134.129 43.4115C134.129 43.9668 134.027 44.5212 133.826 45.0765C133.649 45.6317 133.372 46.2997 132.993 47.082C132.438 48.1916 132.161 48.9863 132.161 49.4658C132.161 50.0458 132.476 50.3361 133.107 50.3361C133.864 50.3361 134.684 50.0334 135.566 49.428C136.475 48.8226 137.295 48.0913 138.026 47.2333C138.783 46.3507 139.338 45.5305 139.691 44.7738L140.599 45.4549C140.095 46.5901 139.388 47.675 138.48 48.709C137.572 49.743 136.55 50.5887 135.415 51.2443C134.305 51.8999 133.208 52.2281 132.123 52.2281ZM143.258 52.9092C141.669 52.9092 140.433 52.4806 139.55 51.6227C138.668 50.7647 138.226 49.6674 138.226 48.3306C138.226 46.8673 138.718 45.2912 139.702 43.6007C140.685 41.8856 141.946 40.4601 143.486 39.3249C145.025 38.1642 146.538 37.5843 148.026 37.5843C148.809 37.5843 149.464 37.7858 149.994 38.1897C150.524 38.5681 150.788 39.2114 150.788 40.1195C150.788 41.3304 150.322 42.4779 149.388 43.5629C148.455 44.6224 147.244 45.4927 145.756 46.1738C144.293 46.8549 142.792 47.2835 141.253 47.4603C141.203 47.7129 141.177 48.0024 141.177 48.3306C141.177 48.9863 141.354 49.6427 141.707 50.2983C142.085 50.9539 142.88 51.2821 144.091 51.2821C145.63 51.2821 147.194 50.6644 148.783 49.428C150.398 48.167 151.697 46.6024 152.68 44.7359L153.437 45.3414C152.428 47.6117 150.978 49.4403 149.086 50.828C147.219 52.2158 145.276 52.9092 143.258 52.9092ZM141.669 46.0603C142.577 45.9591 143.587 45.5939 144.696 44.963C145.832 44.332 146.79 43.5629 147.572 42.6548C148.354 41.7211 148.745 40.813 148.745 39.9303C148.745 39.6531 148.695 39.4639 148.594 39.3627C148.493 39.2616 148.329 39.2114 148.102 39.2114C147.371 39.2114 146.563 39.5643 145.68 40.2709C144.822 40.952 144.028 41.8223 143.296 42.8818C142.565 43.9413 142.022 45.0008 141.669 46.0603ZM156.193 53.1741C154.427 53.1741 153.115 52.6567 152.258 51.6227C151.425 50.6134 151.009 49.4025 151.009 47.9901C151.009 47.0063 151.185 46.3252 151.539 45.9468C151.892 45.5429 152.282 45.2402 152.712 45.0386C153.166 44.8371 153.431 44.6981 153.506 44.6224C155.12 42.9575 156.344 41.2292 157.177 39.4384V39.06C157.177 38.1264 157.328 37.4329 157.631 36.9789C157.958 36.5248 158.374 36.2978 158.88 36.2978C159.434 36.2978 159.737 36.5503 159.788 37.0545C159.788 37.1804 159.75 37.3696 159.674 37.6221C159.623 37.8747 159.598 38.1396 159.598 38.4168C159.598 38.8963 159.674 39.4006 159.826 39.9303C159.977 40.4601 160.216 41.179 160.544 42.0872C160.948 43.1968 161.25 44.156 161.453 44.963C161.68 45.7699 161.793 46.5901 161.793 47.4225C161.793 47.8511 161.742 48.3685 161.642 48.9739C163.357 48.5454 164.845 47.1198 166.107 44.6981L166.561 45.0386C166.056 46.4765 165.35 47.6372 164.442 48.5199C163.558 49.4025 162.512 49.9322 161.301 50.1091C160.897 51.1184 160.242 51.8752 159.334 52.3795C158.425 52.9092 157.378 53.1741 156.193 53.1741ZM158.652 48.8982C158.728 48.6712 158.766 48.2805 158.766 47.7252C158.74 46.9183 158.652 46.1236 158.501 45.3414C158.35 44.5591 158.123 43.5506 157.82 42.3142L157.479 40.952C156.243 43.0965 155.146 44.6726 154.187 45.6819C154.616 46.4132 155.221 47.082 156.004 47.6874C156.785 48.2673 157.669 48.6712 158.652 48.8982ZM155.928 51.5092C156.432 51.5092 156.899 51.3833 157.328 51.1308C157.782 50.8782 158.123 50.513 158.35 50.0334C157.366 49.8319 156.458 49.4535 155.625 48.8982C154.793 48.3183 154.124 47.6997 153.62 47.0441C153.266 47.1198 153.09 47.4604 153.09 48.0658C153.09 48.9739 153.342 49.7809 153.847 50.4875C154.351 51.1686 155.045 51.5092 155.928 51.5092ZM168.475 52.9849C167.314 52.9849 166.406 52.6443 165.751 51.9632C165.094 51.3076 164.767 50.3238 164.767 49.0118C164.767 48.0279 164.956 46.7792 165.334 45.2657C165.713 43.7266 166.217 42.0995 166.848 40.3844C166.192 40.2586 165.751 40.145 165.524 40.0439V38.8708C166.129 38.9465 166.734 39.0099 167.34 39.06C168.475 36.2097 169.686 33.7625 170.972 31.7192C172.284 29.6759 173.343 28.6542 174.151 28.6542C174.428 28.6542 174.668 28.7554 174.87 28.9569C175.097 29.1585 175.21 29.4233 175.21 29.7516C175.21 30.1555 175.034 30.6976 174.681 31.3787C174.327 32.0598 173.747 33.0938 172.94 34.4815C171.83 36.3479 170.959 37.9125 170.329 39.1736C173.23 39.1736 175.538 39.0855 177.254 38.9087V40.1574C174.277 40.4601 171.742 40.6114 169.648 40.6114C168.336 43.7143 167.68 46.2495 167.68 48.2171C167.68 49.2511 167.844 49.9832 168.172 50.4118C168.5 50.8404 169.017 51.0551 169.724 51.0551C170.985 51.0551 172.271 50.4875 173.583 49.3523C174.92 48.1916 176.081 46.6279 177.065 44.6602L177.594 45.0386C176.559 47.3847 175.223 49.3021 173.583 50.7902C171.943 52.2536 170.24 52.9849 168.475 52.9849ZM183.425 35.3139C182.895 35.3139 182.441 35.1881 182.063 34.9355C181.709 34.683 181.533 34.3178 181.533 33.8382C181.533 33.2583 181.848 32.7532 182.479 32.3246C183.134 31.8706 183.828 31.6435 184.56 31.6435C185.644 31.6435 186.187 32.1099 186.187 33.0436C186.187 33.5733 185.897 34.0907 185.317 34.595C184.736 35.0746 184.106 35.3139 183.425 35.3139ZM178.96 52.3795C177.9 52.3795 177.08 52.0644 176.5 51.4335C175.92 50.8025 175.63 49.9956 175.63 49.0118C175.63 48.0024 175.907 46.6402 176.462 44.9251C177.042 43.1845 177.761 41.6586 178.619 40.3466C179.502 39.0345 180.385 38.3789 181.268 38.3789C181.595 38.3789 181.86 38.4801 182.063 38.6816C182.29 38.8585 182.403 39.1234 182.403 39.4763C182.403 39.7033 182.302 40.0183 182.1 40.4222C181.898 40.8006 181.571 41.3559 181.117 42.0872C180.309 43.4239 179.666 44.6101 179.187 45.6441C178.733 46.6534 178.506 47.6117 178.506 48.5199C178.506 49.3021 178.644 49.8319 178.922 50.1091C179.199 50.3863 179.628 50.5253 180.209 50.5253C182.201 50.5253 184.182 48.5955 186.149 44.7359L186.717 45.3414C185.833 47.5615 184.711 49.289 183.349 50.5253C181.987 51.7617 180.524 52.3795 178.96 52.3795ZM187.062 61.8393C186.356 61.8393 185.75 61.6246 185.246 61.196C184.742 60.7921 184.489 60.1999 184.489 59.4176C184.489 58.4337 184.855 57.5379 185.587 56.731C186.343 55.924 187.214 55.2297 188.198 54.6498C189.181 54.0946 190.48 53.439 192.095 52.6822C192.726 51.0929 193.23 49.516 193.609 47.9523C191.565 50.5253 189.648 51.8119 187.857 51.8119C186.848 51.8119 186.041 51.459 185.435 50.7524C184.855 50.0458 184.565 49.1129 184.565 47.9523C184.565 46.2618 185.12 44.6602 186.23 43.1467C187.34 41.6331 188.715 40.4222 190.354 39.5141C191.994 38.5805 193.558 38.114 195.046 38.114C195.829 38.114 196.421 38.2531 196.825 38.5303C197.253 38.8075 197.468 39.148 197.468 39.5519C197.468 39.8045 197.392 40.0315 197.241 40.233C197.09 40.4346 196.964 40.5481 196.863 40.5736C196.61 40.3211 196.358 40.145 196.106 40.0439C195.853 39.9427 195.538 39.8925 195.16 39.8925C193.924 39.8925 192.726 40.3589 191.565 41.2925C190.405 42.2007 189.459 43.3104 188.727 44.6224C188.021 45.9089 187.668 47.0696 187.668 48.1036C187.668 48.6079 187.769 48.9994 187.97 49.2766C188.198 49.5292 188.488 49.655 188.841 49.655C189.522 49.655 190.354 49.2133 191.338 48.3306C192.347 47.448 193.344 46.3128 194.327 44.9251C194.605 43.5127 194.933 42.5034 195.311 41.898C195.69 41.267 196.232 40.952 196.938 40.952C197.267 40.952 197.632 41.0022 198.036 41.1033C198.036 41.759 197.758 43.071 197.203 45.0386C196.648 47.0063 195.98 49.0496 195.198 51.1686C196.459 50.6389 197.67 49.8187 198.83 48.709C200.016 47.5739 200.861 46.275 201.366 44.8116L202.047 45.4927C201.491 47.082 200.495 48.5198 199.057 49.8064C197.645 51.0929 196.194 52.0767 194.706 52.7578C193.545 55.558 192.334 57.765 191.073 59.3797C189.837 61.0192 188.5 61.8393 187.062 61.8393ZM186.911 60.0987C187.415 60.0987 188.072 59.6323 188.879 58.6986C189.686 57.765 190.518 56.3526 191.376 54.4606C189.737 55.2676 188.462 56.0244 187.554 56.731C186.646 57.4623 186.192 58.2322 186.192 59.0392C186.192 59.3674 186.255 59.6191 186.381 59.796C186.533 59.9975 186.709 60.0987 186.911 60.0987ZM204.821 52.9092C203.232 52.9092 201.996 52.4806 201.113 51.6227C200.23 50.7647 199.789 49.6674 199.789 48.3306C199.789 46.8673 200.281 45.2912 201.264 43.6007C202.248 41.8856 203.509 40.4601 205.048 39.3249C206.587 38.1642 208.1 37.5843 209.589 37.5843C210.37 37.5843 211.027 37.7858 211.557 38.1897C212.086 38.5681 212.351 39.2114 212.351 40.1195C212.351 41.3304 211.884 42.4779 210.951 43.5629C210.018 44.6224 208.807 45.4927 207.319 46.1738C205.855 46.8549 204.354 47.2835 202.816 47.4603C202.765 47.7129 202.74 48.0024 202.74 48.3306C202.74 48.9863 202.916 49.6427 203.27 50.2983C203.648 50.9539 204.443 51.2821 205.654 51.2821C207.192 51.2821 208.757 50.6644 210.346 49.428C211.96 48.167 213.259 46.6024 214.243 44.7359L215 45.3414C213.991 47.6117 212.54 49.4403 210.649 50.828C208.781 52.2158 206.839 52.9092 204.821 52.9092ZM203.232 46.0603C204.14 45.9591 205.149 45.5939 206.259 44.963C207.394 44.332 208.353 43.5629 209.135 42.6548C209.916 41.7211 210.308 40.813 210.308 39.9303C210.308 39.6531 210.257 39.4639 210.157 39.3627C210.055 39.2616 209.892 39.2114 209.665 39.2114C208.933 39.2114 208.126 39.5643 207.243 40.2709C206.385 40.952 205.59 41.8223 204.859 42.8818C204.127 43.9413 203.585 45.0008 203.232 46.0603Z" fill="#E6B642"/>
</g>
<defs>
<filter id="filter0_d" x="4" y="13" width="222" height="87.4686" filterUnits="userSpaceOnUse" color-interpolation-filters="sRGB">
<feFlood flood-opacity="0" result="BackgroundImageFix"/>
<feColorMatrix in="SourceAlpha" type="matrix" values="0 0 0 0 0 0 0 0 0 0 0 0 0 0 0 0 0 0 127 0"/>
<feOffset/>
<feGaussianBlur stdDeviation="5.5"/>
<feColorMatrix type="matrix" values="0 0 0 0 0 0 0 0 0 0 0 0 0 0 0 0 0 0 0.5 0"/>
<feBlend mode="normal" in2="BackgroundImageFix" result="effect1_dropShadow"/>
<feBlend mode="normal" in="SourceGraphic" in2="effect1_dropShadow" result="shape"/>
</filter>
</defs>
</svg>
